<svg height="200" viewBox="0 0 1024 1024" width="200" xmlns="http://www.w3.org/2000/svg">
    <path
        d="m512 240c-333.296 0-499.696 243.872-506.624 254.256-7.168 10.752-7.168 24.752 0 35.504 6.928 10.368 173.328 254.24 506.624 254.24s499.696-243.872 506.624-254.256c7.168-10.752 7.168-24.752 0-35.504-6.928-10.368-173.328-254.24-506.624-254.24zm0 480c-248.112 0-396.256-154.848-439.808-208.064 43.408-53.328 190.784-207.936 439.808-207.936 248.112 0 396.256 154.848 439.808 208.064-43.408 53.328-190.784 207.936-439.808 207.936zm0-352c-79.408 0-144 64.608-144 144s64.592 144 144 144 144-64.608 144-144-64.592-144-144-144zm0 224c-44.112 0-80-35.888-80-80s35.888-80 80-80 80 35.888 80 80-35.888 80-80 80z" />
</svg>