<svg fill="none" height="200" viewBox="0 0 200 200" width="200" xmlns="http://www.w3.org/2000/svg">
    <path
        d="m183.921 76.5058s-7.295 8.8146-19.757 17.9336l15.502 16.1096c2.127 2.432 2.127 6.079-.304 8.511-1.216 1.215-2.736 1.824-4.256 1.824-1.519 0-3.039-.609-4.255-1.824l-16.414-17.022c-7.903 5.471-17.325 10.638-27.66 14.286l6.383 21.277c.912 3.344-.912 6.687-4.255 7.599-.304.304-.912.304-1.52.304-2.432 0-5.167-1.824-5.775-4.559l-6.383-21.277c-4.864.912-10.031 1.52-15.198 1.52-5.1675 0-10.3349-.608-15.1981-1.52l-6.3831 21.581c-.6078 2.735-3.0396 4.559-5.7751 4.559h-1.8237c-3.3433-.912-5.1672-4.255-4.2554-7.599l6.3831-21.581c-10.3345-3.647-19.7572-8.814-27.6601-14.286l-16.7176 17.326c-1.2158 1.215-2.7357 1.824-4.2553 1.824-1.5199 0-3.0396-.609-3.6476-1.824-2.4317-2.128-2.7358-6.079-.3041-8.511l15.5019-16.1098c-11.5502-9.1188-18.8451-17.3256-19.4531-18.2373-2.1275-2.4319-1.8236-6.3832.608-8.511 2.4319-2.1275 6.383-1.8236 8.511.608.3039.3039 35.563 40.4261 74.4692 40.4261 40.123 0 73.862-39.8183 74.166-40.1222 2.127-2.7355 5.775-3.3435 8.51-1.2158 2.432 2.1278 3.04 5.7752 1.216 8.5108z"
        fill="#000" />
</svg>