<svg fill="none" height="124" viewBox="0 0 144 124" width="144" xmlns="http://www.w3.org/2000/svg">
    <defs>
        <linearGradient gradientUnits="userSpaceOnUse" id="paint0_linear" x1="71.6072" x2="54.1265"
            y1="95.2556" y2="14.2002">
            <stop stop-color="#808080" stop-opacity="0.25" />
            <stop offset="0.54" stop-color="#808080" stop-opacity="0.12" />
            <stop offset="1" stop-color="#808080" stop-opacity="0.1" />
        </linearGradient>
        <linearGradient gradientUnits="userSpaceOnUse" id="paint1_linear" x1="15544.5" x2="15471.3"
            y1="-2032.73" y2="-2372.47">
            <stop stop-color="#808080" stop-opacity="0.25" />
            <stop offset="0.54" stop-color="#808080" stop-opacity="0.12" />
            <stop offset="1" stop-color="#808080" stop-opacity="0.1" />
        </linearGradient>
        <linearGradient gradientUnits="userSpaceOnUse" id="paint2_linear" x1="4548.96" x2="4446.75"
            y1="231.858" y2="-242.101">
            <stop stop-color="#808080" stop-opacity="0.25" />
            <stop offset="0.54" stop-color="#808080" stop-opacity="0.12" />
            <stop offset="1" stop-color="#808080" stop-opacity="0.1" />
        </linearGradient>
        <linearGradient gradientUnits="userSpaceOnUse" id="paint3_linear" x1="28502.7" x2="28502.7"
            y1="58947.7" y2="10561.1">
            <stop stop-color="#808080" stop-opacity="0.25" />
            <stop offset="0.54" stop-color="#808080" stop-opacity="0.12" />
            <stop offset="1" stop-color="#808080" stop-opacity="0.1" />
        </linearGradient>
        <linearGradient gradientUnits="userSpaceOnUse" id="paint4_linear" x1="13837.6" x2="13837.6"
            y1="1112.73" y2="765.107">
            <stop stop-color="#808080" stop-opacity="0.25" />
            <stop offset="0.54" stop-color="#808080" stop-opacity="0.12" />
            <stop offset="1" stop-color="#808080" stop-opacity="0.1" />
        </linearGradient>
        <linearGradient gradientUnits="userSpaceOnUse" id="paint5_linear" x1="5461.08" x2="5461.08"
            y1="1473.72" y2="988.213">
            <stop stop-color="#808080" stop-opacity="0.25" />
            <stop offset="0.54" stop-color="#808080" stop-opacity="0.12" />
            <stop offset="1" stop-color="#808080" stop-opacity="0.1" />
        </linearGradient>
    </defs>
    <ellipse cx="72" cy="96" fill="#F4F4F4" rx="72" ry="28" />
    <path d="M84.2108 6.22721L23.776 19.2607L41.6924 103.19L102.127 90.1561L84.2108 6.22721Z"
        fill="#E0E0E0" />
    <g opacity="0.5">
        <path d="M83.4932 7.86692L25.101 20.46L42.4117 101.552L100.804 88.9589L83.4932 7.86692Z"
            fill="url(#paint0_linear)" opacity="0.5" />
    </g>
    <path d="M82.8766 8.62405L25.9709 20.8965L42.8993 100.197L99.8049 87.9244L82.8766 8.62405Z"
        fill="white" />
    <path d="M67.8796 8.26238L39.6494 14.3506L41.1167 21.224L69.3469 15.1358L67.8796 8.26238Z"
        fill="url(#paint1_linear)" />
    <path
        d="M52.3305 4.59308C50.151 5.06363 48.772 7.26284 49.2514 9.5047C49.7309 11.7466 51.885 13.1852 54.0602 12.7147C56.2355 12.2441 57.6188 10.0449 57.1393 7.80305C56.6598 5.56119 54.51 4.12253 52.3305 4.59308ZM53.6982 11.0045C53.2375 11.1149 52.7546 11.085 52.311 10.9185C51.8673 10.752 51.483 10.4566 51.2071 10.0697C50.9311 9.68293 50.776 9.22229 50.7615 8.74654C50.747 8.27078 50.8737 7.80146 51.1256 7.39837C51.3774 6.99529 51.743 6.6767 52.1756 6.48321C52.6083 6.28972 53.0885 6.2301 53.555 6.31193C54.0215 6.39377 54.4532 6.61336 54.7951 6.94272C55.1369 7.27208 55.3735 7.69629 55.4746 8.16129C55.5445 8.46526 55.5539 8.7801 55.5023 9.08774C55.4508 9.39537 55.3393 9.68974 55.1742 9.95393C55.0091 10.2181 54.7938 10.4469 54.5405 10.6272C54.2872 10.8075 54.0009 10.9357 53.6982 11.0045Z"
        fill="url(#paint2_linear)" />
    <path d="M67.5193 8.03125L39.8838 13.9912L41.2864 20.5616L68.9219 14.6016L67.5193 8.03125Z"
        fill="#BABABA" />
    <path
        d="M52.3305 4.5933C51.5667 4.75809 50.8686 5.14686 50.3245 5.71043C49.7804 6.27401 49.4148 6.98708 49.274 7.75949C49.1331 8.53189 49.2233 9.32894 49.5331 10.0498C49.8429 10.7707 50.3584 11.3831 51.0144 11.8095C51.6705 12.236 52.4376 12.4573 53.2188 12.4455C54 12.4337 54.7602 12.1894 55.4032 11.7434C56.0462 11.2973 56.5432 10.6697 56.8314 9.93977C57.1195 9.20985 57.1858 8.41044 57.022 7.64263C56.9132 7.13277 56.7055 6.64945 56.4108 6.22027C56.1162 5.79108 55.7403 5.42444 55.3046 5.14128C54.869 4.85812 54.3821 4.66398 53.8718 4.56996C53.3615 4.47594 52.8378 4.48387 52.3305 4.5933ZM53.6374 10.7204C53.1965 10.8155 52.7374 10.777 52.3183 10.6099C51.8991 10.4427 51.5387 10.1544 51.2825 9.7813C51.0264 9.40824 50.8861 8.96722 50.8794 8.51401C50.8727 8.06081 50.9998 7.61577 51.2447 7.23518C51.4896 6.8546 51.8413 6.55556 52.2553 6.37589C52.6693 6.19622 53.127 6.14398 53.5706 6.22579C54.0141 6.3076 54.4236 6.51977 54.7471 6.83548C55.0707 7.15119 55.2939 7.55626 55.3884 7.99945C55.5151 8.59365 55.4018 9.2141 55.0735 9.72436C54.7451 10.2346 54.2286 10.5929 53.6374 10.7204Z"
        fill="#BABABA" />
    <path d="M112.285 16.6201H50.4749V102.459H112.285V16.6201Z" fill="#E0E0E0" />
    <g opacity="0.5">
        <path d="M111.241 18.0713H51.5201V101.009H111.241V18.0713Z" fill="url(#paint3_linear)"
            opacity="0.5" />
    </g>
    <path d="M110.481 18.6826H52.2797V99.7878H110.481V18.6826Z" fill="white" />
    <path d="M95.8927 15.166H67.02V22.1958H95.8927V15.166Z" fill="url(#paint4_linear)" />
    <path
        d="M81.4564 8.30371C79.2273 8.30371 77.4198 10.1632 77.4198 12.4576C77.4198 14.7521 79.2273 16.6115 81.4564 16.6115C83.6854 16.6115 85.493 14.7521 85.493 12.4576C85.493 10.1632 83.6854 8.30371 81.4564 8.30371ZM81.4564 14.8544C80.9825 14.8658 80.516 14.7348 80.1165 14.4784C79.717 14.222 79.4026 13.8518 79.2134 13.4149C79.0242 12.9781 78.9688 12.4945 79.0543 12.0259C79.1399 11.5572 79.3624 11.1249 79.6935 10.784C80.0246 10.4431 80.4493 10.2091 80.9134 10.1119C81.3774 10.0147 81.8598 10.0587 82.2988 10.2383C82.7378 10.418 83.1137 10.725 83.3783 11.1203C83.6429 11.5156 83.7843 11.9812 83.7844 12.4576C83.7889 13.0838 83.5466 13.6863 83.1103 14.1334C82.674 14.5804 82.0793 14.8356 81.4564 14.8431V14.8544Z"
        fill="url(#paint5_linear)" />
    <path d="M95.5886 14.8643H67.3241V21.5842H95.5886V14.8643Z" fill="#BABABA" />
    <path
        d="M81.4564 8.30371C80.6751 8.30371 79.9114 8.53658 79.2617 8.97287C78.6121 9.40915 78.1058 10.0293 77.8068 10.7548C77.5078 11.4803 77.4296 12.2786 77.582 13.0489C77.7344 13.8191 78.1107 14.5265 78.6631 15.0818C79.2156 15.6371 79.9195 16.0153 80.6858 16.1685C81.452 16.3217 82.2463 16.243 82.9681 15.9425C83.69 15.642 84.3069 15.1331 84.741 14.4801C85.175 13.8272 85.4067 13.0595 85.4067 12.2742C85.4067 11.2212 84.9905 10.2113 84.2497 9.46665C83.5089 8.72203 82.5041 8.30371 81.4564 8.30371ZM81.4564 14.5659C81.0058 14.5653 80.5655 14.4306 80.1911 14.1787C79.8167 13.9268 79.5249 13.569 79.3526 13.1505C79.1803 12.7321 79.1352 12.2717 79.223 11.8275C79.3109 11.3833 79.5277 10.9753 79.8461 10.6548C80.1645 10.3344 80.5702 10.116 81.012 10.0271C81.4538 9.93831 81.9119 9.98304 82.3285 10.1557C82.745 10.3284 83.1013 10.6212 83.3524 10.9972C83.6035 11.3733 83.7381 11.8157 83.7392 12.2686C83.739 12.5696 83.6798 12.8677 83.565 13.1457C83.4501 13.4238 83.2819 13.6764 83.0699 13.8891C82.8579 14.1017 82.6063 14.2704 82.3295 14.3853C82.0526 14.5002 81.7559 14.5591 81.4564 14.5588V14.5659Z"
        fill="#BABABA" />

</svg>
